/* XPM */
static char *result[] = {
/* columns rows colors chars-per-pixel */
"80 80 256 2 ",
"   c black",
".  c #010101",
"X  c #020202",
"o  c gray1",
"O  c #040404",
"+  c gray2",
"@  c #060606",
"#  c #070707",
"$  c gray3",
"%  c #090909",
"&  c gray4",
"*  c #0B0B0B",
"=  c #0C0C0C",
"-  c gray5",
";  c #0E0E0E",
":  c gray6",
">  c #101010",
",  c #111111",
"<  c gray7",
"1  c #131313",
"2  c gray8",
"3  c #151515",
"4  c #161616",
"5  c gray9",
"6  c #181818",
"7  c #191919",
"8  c gray10",
"9  c #1B1B1B",
"0  c gray11",
"q  c #1D1D1D",
"w  c #1E1E1E",
"e  c gray12",
"r  c #202020",
"t  c gray13",
"y  c #222222",
"u  c #232323",
"i  c gray14",
"p  c #252525",
"a  c gray15",
"s  c #272727",
"d  c #282828",
"f  c gray16",
"g  c #2A2A2A",
"h  c gray17",
"j  c #2C2C2C",
"k  c #2D2D2D",
"l  c gray18",
"z  c #2F2F2F",
"x  c gray19",
"c  c #313131",
"v  c #323232",
"b  c gray20",
"n  c #343434",
"m  c #353535",
"M  c gray21",
"N  c #373737",
"B  c gray22",
"V  c #393939",
"C  c #3A3A3A",
"Z  c gray23",
"A  c #3C3C3C",
"S  c gray24",
"D  c #3E3E3E",
"F  c #3F3F3F",
"G  c gray25",
"H  c #414141",
"J  c gray26",
"K  c #434343",
"L  c #444444",
"P  c gray27",
"I  c #464646",
"U  c gray28",
"Y  c #484848",
"T  c #494949",
"R  c gray29",
"E  c #4B4B4B",
"W  c #4C4C4C",
"Q  c gray30",
"!  c #4E4E4E",
"~  c gray31",
"^  c #505050",
"/  c #515151",
"(  c gray32",
")  c #535353",
"_  c gray33",
"`  c #555555",
"'  c #565656",
"]  c gray34",
"[  c #585858",
"{  c gray35",
"}  c #5A5A5A",
"|  c #5B5B5B",
" . c gray36",
".. c #5D5D5D",
"X. c gray37",
"o. c #5F5F5F",
"O. c #606060",
"+. c gray38",
"@. c #626262",
"#. c gray39",
"$. c #646464",
"%. c #656565",
"&. c gray40",
"*. c #676767",
"=. c #686868",
"-. c DimGray",
";. c #6A6A6A",
":. c gray42",
">. c #6C6C6C",
",. c #6D6D6D",
"<. c gray43",
"1. c #6F6F6F",
"2. c gray44",
"3. c #717171",
"4. c #727272",
"5. c gray45",
"6. c #747474",
"7. c gray46",
"8. c #767676",
"9. c #777777",
"0. c gray47",
"q. c #797979",
"w. c gray48",
"e. c #7B7B7B",
"r. c #7C7C7C",
"t. c gray49",
"y. c #7E7E7E",
"u. c gray50",
"i. c #808080",
"p. c #818181",
"a. c gray51",
"s. c #838383",
"d. c #848484",
"f. c gray52",
"g. c #868686",
"h. c gray53",
"j. c #888888",
"k. c #898989",
"l. c gray54",
"z. c #8B8B8B",
"x. c gray55",
"c. c #8D8D8D",
"v. c #8E8E8E",
"b. c gray56",
"n. c #909090",
"m. c gray57",
"M. c #929292",
"N. c #939393",
"B. c gray58",
"V. c #959595",
"C. c gray59",
"Z. c #979797",
"A. c #989898",
"S. c gray60",
"D. c #9A9A9A",
"F. c #9B9B9B",
"G. c gray61",
"H. c #9D9D9D",
"J. c gray62",
"K. c #9F9F9F",
"L. c #A0A0A0",
"P. c gray63",
"I. c #A2A2A2",
"U. c gray64",
"Y. c #A4A4A4",
"T. c #A5A5A5",
"R. c gray65",
"E. c #A7A7A7",
"W. c gray66",
"Q. c #A9A9A9",
"!. c #AAAAAA",
"~. c gray67",
"^. c #ACACAC",
"/. c gray68",
"(. c #AEAEAE",
"). c #AFAFAF",
"_. c gray69",
"`. c #B1B1B1",
"'. c #B2B2B2",
"]. c gray70",
"[. c #B4B4B4",
"{. c gray71",
"}. c #B6B6B6",
"|. c #B7B7B7",
" X c gray72",
".X c #B9B9B9",
"XX c gray73",
"oX c #BBBBBB",
"OX c #BCBCBC",
"+X c gray74",
"@X c gray",
"#X c gray75",
"$X c #C0C0C0",
"%X c #C1C1C1",
"&X c gray76",
"*X c #C3C3C3",
"=X c gray77",
"-X c #C5C5C5",
";X c #C6C6C6",
":X c gray78",
">X c #C8C8C8",
",X c gray79",
"<X c #CACACA",
"1X c #CBCBCB",
"2X c gray80",
"3X c #CDCDCD",
"4X c #CECECE",
"5X c gray81",
"6X c #D0D0D0",
"7X c gray82",
"8X c #D2D2D2",
"9X c LightGray",
"0X c gray83",
"qX c #D5D5D5",
"wX c gray84",
"eX c #D7D7D7",
"rX c #D8D8D8",
"tX c gray85",
"yX c #DADADA",
"uX c gray86",
"iX c gainsboro",
"pX c #DDDDDD",
"aX c gray87",
"sX c #DFDFDF",
"dX c gray88",
"fX c #E1E1E1",
"gX c #E2E2E2",
"hX c gray89",
"jX c #E4E4E4",
"kX c gray90",
"lX c #E6E6E6",
"zX c #E7E7E7",
"xX c gray91",
"cX c #E9E9E9",
"vX c #EAEAEA",
"bX c gray92",
"nX c #ECECEC",
"mX c gray93",
"MX c #EEEEEE",
"NX c #EFEFEF",
"BX c gray94",
"VX c #F1F1F1",
"CX c gray95",
"ZX c #F3F3F3",
"AX c #F4F4F4",
"SX c gray96",
"DX c #F6F6F6",
"FX c gray97",
"GX c #F8F8F8",
"HX c #F9F9F9",
"JX c gray98",
"KX c #FBFBFB",
"LX c gray99",
"PX c #FDFDFD",
"IX c #FEFEFE",
"UX c white",
/* pixels */
"G G G G G G G V S G F Z V B c i 9 5 < = $ # @                 o 5 e 7 < & O X o o + 9 x l n m j s p s h l k r 1 , , 1 2 3 4 6 7 8 0 q w r t r q h l z z f 1 p m ",
"G G G G G G h ; x F G G G G G F S A B v z k h a p p p p a a s h n N n b c z z x x c m C S D D F G G G H H H F S S S S D D D F F F F F F G A 0 3 A F F D S k y G ",
"G G G G G F 9 $ x C G G G G G G G G G G H H H H H H H H H H H H H G H H H H H H H H H G G G G G G G G G G G G G G G G G G G G G G G F F G M = 4 M A S D S M 6 d ",
"G G G G G G S a m D G G G G G G G G G G G G G G G G G G G G G G G G G G G G G G G G G G G G G G G G G G G G G G G G G G G G G G G G G G G G m p Z D D D A B w 3 ",
"G G G G G G l - * k H G G G G G G G G G G G G G G G G G G G G G G G G G G G G G G G G G G G G G G G G G G G G G G G G G G G G G G G G G A N e $ < v N N M b v d ",
"G G G G G A -     r F G G G G G G G G G G G G G G G G G G G G G G G G G G G G G G G G G G G G G G G G G G G G G G G G G G G G G G G G G F g .   o k Z Z Z C A M ",
"G G G G G a X     6 B G G G G G G G G G G G G G G G G G G G G G G G G G G G G G G G G G G G G G G G G G G G G G G G G G G G G G G G G G C 3     O a A F N j v F ",
"G G G H N $       < A G G G G G G G G G G G G G G G G G G G G G G G G G G G G G G G G G G G G G G G G G G G G G G G G G G G G G G G G G p       . i F A h C A F ",
"G G G H M @     . d H G G G G G G G G G G G G G G G G G G G G G G G G G G G G G G G G G G G G G G G G G G G G G G G G G G G G G G G F G i       & N G m g F G G ",
"G G G G A 2 .   : A G G G G G G G G G G G G G G G G G G G G G G G G G G G G G G G G G G G G G G G G G G G G G G G G F G F F G G F F F G x #   . t F B f v A D G ",
"G G G G G N % . u G G G G G G G G G G G G G G G G G G G G G G G G G G G G G G G G G G G G G G G G G G G G G G G G F F A Z C A F F G F F G s   % c C j z N B A F ",
"G G G G H m +   & m H G G G G G G G G G G G G G G G G G G G G G G G G G G G G G G G G G G G G G G G G G G G G G G F F S D D M N A V B D H y   . 5 C b m A A V F ",
"G G G G H l X   o c H G G G G G G G G G G G G G G G G G G G G G G G G G G G G G G G G G G G G G G G G G G G G G G G G G F F D v b V S G F 6     - N D D F V V G ",
"G G G G H j .   + m H G G G G G G G G G G G G G G G G G G G G G G G G G G G G G G G G G G G G G G G G G G G G G G G G G G F G b V G F F F 4     2 v v B D b V G ",
"G G G G H v o   $ N H G G G G G G G G G G G G G G G G G G G G G G G G G G G G G G G G G G G G G G G G G G G G G G G G G G G F h Z G F F F q     5 j j x n n V F ",
"G G G G H B #   o v H G G G G G G G G G G H H H H G G G G G G G G G G G G G G G G G G G G G G G G G G G G G G G G G G G G G D a B G G S B e     = m F D A A S F ",
"G G G G G A = X 0 A G G G G G G G G G H S B M N B V C Z A S D F F F G G G H H H H G G G G G G G G G G G G G G G G G G G G G S r x H F F D h . & i C F D F D D F ",
"S F F F G F 2 & Z F D F G G F S A A C c h t 0 r e q w r u t r u g j z x z d k n B C Z S F H H H G G G H G G G F F F G G G G D i 1 g S G F c O 9 C m Z C B B m S ",
"g B A A F F s 1 Z n x z s 8 2 , : ; & o X o O + + O + @ & $ @ @ $ * ; , > + # - , : - , 7 r i s a y r q 0 8 5 5 q i v A A A D b p 6 w r 3 - X + = = - = * = - 7 ",
"q a s i 0 w y d M h w 8 :                                                               + , = > 2 2 - @ o     * 2 9 w q 7 6 4 : % # .                       . o ",
"r y y d k k l Z A l r p 0 # O o o X . .                                                 . X . . . . X O + + o o . X                                             ",
"C A D G H G D G G D D G Z m b v v z k h d u 0 3 , - & # @ O X                     + < , ; = # X     X # - r s u e h p e q 0 8 8 9 9 4 = @ + + @ $ $ % $ & * = - ",
"G G G G G G G G G G G G G H H F S S G H F S C V V M c i - 6 y 9 8 7 7 7 7 7 8 9 0 u h l j j f p u i i p d x m Z S D F F G H G F D S Z B m v a t b V V k N C Z A ",
"G G G G G G G G G G G G G G G G G G G G G G G G G G G y . a B G G G G G G G G G G G G G G G H H H H H H H G G G G G G G G G G D S D D F D m j r z x c l D G G G ",
"G G G G G G G G G G G G G G G G G G G G G G G G G G G Z i v D G G G G G G G G G G G G G G G G G G G G G G G G G G G G G G G F D D F F F S A F a ; & * y v c D G ",
"G G G G G G G G G G G G G G G G G G G G G G G G G G G Z 9 < h H G G G G G G G G G G G G G G G G G G G G G G G G G G G G G F F F G G F F F F D d g s r 4 9 b Z G ",
"G G G G G G G G G G G G G G G G G G G G G G G G G G G 0     5 F G G G G G G G G G G G G G G G G G G G G G G G G G D Z V C S D S B N D F F F M y S F D B u Z F G ",
"G G G G G G G G G G G G G G G G G G G G G G G G G G M &     < m G G G G G G G G G G G G G G G G G G G G G G G G G S M c j f g h k x B D D G a 3 S F D F n B G G ",
"G G G G G G G G G G G G G G G G G G G G G G G G G D 2       & n H G G G G G G G G G G G G G G G G G G G G G G G G F D F D S Z S D S m M V z 4 , A F F F D S G G ",
"G G G G G G G G G G G G G G G G G G G G G G G G G A -       5 D G G G G G G G G G G G G G G G G G G G G G G G G G F F D F G F F F D Z c p < 5 4 C G F D F G G G ",
"G G G G G G G G G G G G G G G G G G G G G G G G G F 4     + c H G G G G G G G G G G G G G G G G G G G G G G G G G F F D F F G F F F C z z u 4 , m F D D F G G G ",
"G G G G G G G G G G G G G G G G G G G G G G G G G G B :   6 D G G G G G G G G G G G G G G G G G G G G G G G G G G F F F F F G G G S B n m c w v S S A A D G G G ",
"G G G G G G G G G G G G G G G G G G G G G G G G G G S :   * v H G G G G G G G G G G G G G G G G G G G G G G G G G G G F F F S S D f B D S M q k m Z V Z D F G G ",
"G G G G G G G G G G G G G G G G G G G G G G G G G H B $     a H G G G G G G G G G G G G G G G G G G G G G G G G G G G F F A m S M x D G G D t ; 7 n Z S S S F G ",
"G G G G G G G G G G G G G G G G G G G G G G G G G H m +   . g H G G G G G G G G G G G G G G G G G G G G G G G G G G G F F m V D N S G G G F z f B B S S S A D G ",
"G G G G G G G G G G G G G G G G G G G G G G G G G G V %   X x H G G G G G G G G G G G G G G G G G G G G G G G G G G G F N k C F F G G G G D i j S S D D S S F G ",
"G G G G G G G G G G G G G G G G G G G G G G G G G G S ;     d H G G G G G G G G G G G G G G G G G G G G G G G G G G G D n B A F D F G G F A e k S S D D D D F G ",
"G G G H H H H H H G G G G G G G G G G G G G G G G G F 3   = b H G G G G G G G G G G G G G G G G G G G G G G G G G F D Z S F F F D F F F D B q m A S S D D D F G ",
"a d j k l v b n B Z S F G H H H H H H H H H H H H H H q o c H H H H G G G G G G G G G G H H H G G G G G H G G G G F C D G G G G F F F C z d 3 M Z Z A S D D F G ",
"& % = - : 4 5 - < 3 2 3 0 s j l k g d d d a i u a f N g & B D N n j r 6 6 6 5 5 5 5 5 w s p w 8 7 6 8 r c M Z A B B b h f u 9 6 4 3 3 > > 3 = y b M V V V V D H ",
"                          O : : 2 4 ; @ o   X - w p i r 1 r 4 * $ O                   . $ O         . $ 1 6 7 6 3 < ; @ + .               @ * # 3 y f d s f z x ",
"                          . @ + + + O o X   . o O O X                                                                                           . X . X o o o o ",
"                    . & = % O .     . @ $ 4 w 3 8 6 > * & = : > : # . . . X X o o O O + + @ # # $ % * > , < 1 3 5 3 3 > = < < < < < ; 2 6 7 9 7 9 e 0 0 e y i f ",
"7 4 ; ; ; ; % . * > 5 f h a y 9 5 5 6 6 0 h N C S A Z Z Z A S D S n l k k l z x c b n n m M N B N i i D D D F F F D D M g S D S A C l m G G H Z N G S C S F G H ",
"S S S S S Z 4 X h V F F F F F F G G G G G F F G G G G G G G G G G H H H H H H H H H H H H H H H l o 8 V F G G F F F D Z f D F F D S B b F G G F m m S D D F G G ",
"G G G G G G x 9 N S G G G G G G G G G G G G G G G G G G G G G G G G G G G G G G G G G G G G G G V e g A G G G F F F D A f A F F D D V x S D D D Z c x S D F G G ",
"G G G G G G A q r N H G G G G G G G G G G G G G G G G G G G G G G G G G G G G G G G G G G G G G G h 7 j G G G G F D F A s V D F D D B b S S S S A Z B D F G G G ",
"G G G G G F 7     p H G G G G G G G G G G G G G G G G G G G G G G G G G G G G G G G G G G G G H j +   : S G G G F D C g k F D F D C v V S S S S D D D F F G G G ",
"G G G G H n @     0 C G G G G G G G G G G G G G G G G G G G G G G G G G G G G G G G G G G G G D 6     & v F G G G F S B j x F F S M V D D F F F D D F F G G G G ",
"G G G G Z <       1 V G G G G G G G G G G G G G G G G G G G G G G G G G G G G G G G G G G G G p X     @ h G G G G G G G S a n G S Z A D F F F F F F G G G G G G ",
"G G G H m +       9 G G G G G G G G G G G G G G G G G G G G G G G G G G G G G G G G G G G G G 5       % N H G G G G G G G M r V F S S D F F F G F F G G G G G G ",
"G G G G V %     # m H G G G G G G G G G G G G G G G G G G G G G G G G G G G G G G G G G G G G q       y H G G G G G G G G F z a Z F D D D D F F F F G G G G G G ",
"G G G G F g + . q G G G G G G G G G G G G G G G G G G G G G G G G G G G G G G G G G G G G G G M <   = N H G G G G G G G G F F x a F A v C S F F F F G G G G G G ",
"G G G G H V $   7 Z G G G G G G G G G G G G G G G G G G G G G G G G G G G G G G G G G G G G G H 0   & x G G G G G G G G G F F S y M A g b S F F F G G G G G G G ",
"G G G G H c o   o c F G G G G G G G G G G G G G G G G G G G G G G G G G G G G G G G G G G G G D <     9 G G G G G G G G G F F F h i N N B D F F F G G G G G G G ",
"G G G G H h .   O h h M G G F G G G G G G G G G G G G G G G G G G G G G G G G G G G G G G G G A -     q H G G G G G G G G F F S g c D S S D F F F G G G G G G G ",
"G G G G G z X   $ m b r d D G G G G G G G G G G G G G G G G G G G G G G G G G G G G G G G G G S >     i H G G G G G G G G F D m y A D D D D D F F G G G G G G G ",
"G F G G G m +   O v F N q b H G G G G G G G G G G G G G G G G G G G G G G G G G G G G G G G G G 5     w H G G G G G G G G F A k e C D D D D D F F G G G G G G G ",
"F F F G G C &   & n D S d r C H H H G G G G G G G G G G G G G G G G G G G G G G G G G G G G G H e   o p H G G G G G G G F D b k e x D D D D F F G G G G G G G G ",
"G H G H H S > o 7 p s d e $ w b m B Z A D F G H H H H H H H H H H H H G G G G G G G H H H H H J s   u F H H H H H H H G G A N N k s A F F G G G H G G G G G G G ",
"v z j f i 7 # o : > > > = & * < 3 9 q 2 8 r r a l n N M n b z l l z v A D G H G F V l p i a d a 7 . 9 l z d p p a j M Z D Z V M z e w i t y s k b B A G G G S D ",
"0 # .                             . .   . X .   O - , 1 > % O X o ; 7 f f l k t 5 = o                 X X       o ; 9 t i w 0 4 = #           . $ 5 y j m V z b ",
"1 X                                             . $ & & @ o X     @ # # O o .                                     . . .                           X O @ % & % $ ",
"k r 7 4 3 2 , = @ o .                       . + O X         O 2 3 = < > $ # # # # +                 . . . X X o O # $ % % & * & % % % % % & * - ; : > > , 1 2 4 ",
"G G G F D D S Z n f 4 5 4 3 - @ @ @ @ @ @ # < y w 8 , * X $ : u b m Z Z B B N N N c t r y u i a s f g h k l z c n N V V V C Z C V V V V C C Z A S S S D D F F G ",
"F F G G F F F F F n d m N B N M M M M M N N C A Z A A u . y B S D F F G G H H H H H H H H H H H H H H H H H H H H H G G G G G G G G G G G G G G G G G G G G G G ",
"G F G G G D D A N d n N C F G H H H H H H H G G G G H l < z Z G G G G G G G G G G G G G G G G G G G G G G G G G G G G G G G G G G G G G G G G G G G G G G G G G ",
"C Z F G F D S C B l V Z C Z G G G G G G G G G G G G G H f a B G G G G G G G G G G G G G G G G G G G G G G G G G G G G G G G G G G G G G G G G G G G G G G G G G ",
"V D G S V V S N A A D D N S G G G G G G G G G G G G G g # . q G G G G G G G G G G G G G G G G G G G G G G G G G G G G G G G G G G G G G G G G G G G G G G G G G ",
"F F F D A S F C n V D A x F G G G G G G G G G G G G D ,     1 C G G G G G G G G G G G G G G G G G G G G G G G G G G G G G G G G G G G G G G G G G G G G G G G G ",
"F F F F G F G B s g v n n S G G G G G G G G G G G G u X     ; b H G G G G G G G G G G G G G G G G G G G G G G G G G G G G G G G G G G G G G G G G G G G G G G G ",
"G F Z M N V M x Z D A C A S G G G G G G G G G G G A -       - C G G G G G G G G G G G G G G G G G G G G G G G G G G G G G G G G G G G G G G G G G G G G G G G G ",
"G F S A V B V b D D D D D D G G G G G G G G G G G D >     . s H G G G G G G G G G G G G G G G G G G G G G G G G G G G G G G G G G G G G G G G G G G G G G G G G ",
"B G G G D S F V Z D S S C Z G G G G G G G G G G G G d #   : C G G G G G G G G G G G G G G G G G G G G G G G G G G G G G G G G G G G G G G G G G G G G G G G G G ",
"8 V G G G D D D Z Z S F S A G G G G G G G G G G G G F <   4 C G G G G G G G G G G G G G G G G G G G G G G G G G G G G G G G G G G G G G G G G G G G G G G G G G ",
"p e A D F F D F D A F Z V Z F G G G G G G G G G G G C &   . d H G G G G G G G G G G G G G G G G G G G G G G G G G G G G G G G G G G G G G G G G G G G G G G G G ",
"C a g B M S D F F D A b V D G G G G G G G G G G G H M @     s H G G G G G G G G G G G G G G G G G G G G G G G G G G G G G G G G G G G G G G G G G G G G G G G G ",
"S A v N v x F F F S c B D F G G G G G G G G G G G H N #   X l H G G G G G G G G G G G G G G G G G G G G G G G G G G G G G G G G G G G G G G G G G G G G G G G G ",
"A S S C M a m D F Z b F F G G G G G G G G G G G G G Z =   . j H G G G G G G G G G G G G G G G G G G G G G G G G G G G G G G G G G G G G G G G G G G G G G G G G ",
"D D D Z z w h S D m b F F G G G G G G G G G G G G G D ,   . f H G G G G G G G G G G G G G G G G G G G G G G G G G G G G G G G G G G G G G G G G G G G G G G G G "
};
