/* XPM */
static char *result[] = {
/* columns rows colors chars-per-pixel */
"80 80 81 1 ",
"  c gray5",
". c #1E1E1E",
"X c #222222",
"o c #252525",
"O c gray15",
"+ c gray16",
"@ c #2C2C2C",
"# c #2D2D2D",
"$ c gray19",
"% c gray20",
"& c #343434",
"* c #373737",
"= c #3A3A3A",
"- c #3E3E3E",
"; c #414141",
": c gray26",
"> c gray27",
", c #484848",
"< c #4C4C4C",
"1 c gray31",
"2 c #505050",
"3 c #535353",
"4 c #565656",
"5 c gray34",
"6 c #5A5A5A",
"7 c #5D5D5D",
"8 c gray38",
"9 c #646464",
"0 c #686868",
"q c gray42",
"w c #6C6C6C",
"e c #6F6F6F",
"r c #727272",
"t c gray45",
"y c #767676",
"u c gray47",
"i c #797979",
"p c gray48",
"a c gray49",
"s c #808080",
"d c #818181",
"f c #848484",
"g c gray53",
"h c #888888",
"j c #8B8B8B",
"k c gray55",
"l c #8D8D8D",
"z c #8E8E8E",
"x c gray56",
"c c #929292",
"v c #959595",
"b c gray59",
"n c gray60",
"m c gray61",
"M c #A0A0A0",
"N c gray64",
"B c #A4A4A4",
"V c #A7A7A7",
"C c #AAAAAA",
"Z c gray67",
"A c #AEAEAE",
"S c #B1B1B1",
"D c gray71",
"F c gray72",
"G c #B9B9B9",
"H c #BCBCBC",
"J c gray75",
"K c #C3C3C3",
"L c gray77",
"P c #C6C6C6",
"I c #CACACA",
"U c #CDCDCD",
"Y c gray82",
"T c #D2D2D2",
"R c gray83",
"E c #D8D8D8",
"W c gray86",
"Q c gainsboro",
"! c #DDDDDD",
"~ c gray87",
"^ c #DFDFDF",
/* pixels */
"^^^^^^^^^^^^^^^^^^^^^^^^^^^^^^^^^^^^^^^^^^^^^^^^^^^^^^^^^^^^^^^^^^^^^^^^^^^^^^^^",
"^^^^^^^^^^^^^^^^^^^^^^^^^^^^^^^^^^^^^^^^^^^^^^^^^^^^^^^^^^^^^^^^^^^^^^^^^^^^^^^^",
"^^^^^^^^^^^^^^^^^^^^^^^^^^^^^^^^^^^^^^^^^^^^^^^^^^^^^^^^^^^^^^^^^^^^^^^^^^^^^^^^",
"^^^^^^^^^^^^^^^^^^^^^^^^^^^^^^^^^^^^^^^^^^^^^^^^^^^^^^^^^^^^^^^^^^^^^^^^^^^^^^^^",
"^^^^^^^^^^^^^^^^^^^^^^^^^^^^^^^^^^^^^^^^^^^^^^^^^^^^^^^^^^^^^^^^^^^^^^^^^^^^^^^^",
"^^^^^^^^^^^^^^^^^^^^^^^^^^^^^^^^^^^^^^^^^^^^^^^^^^^^^^^^^^^^^^^^^^^^^^^^^^^^^^^^",
"^^^^^^^^^^^^^^^^^^^^^^^^^^^^^^^^^^^^^^^^^^^^^^^^^^^^^^^^^^^^^^^^^^^^^^^^^^^^^^^^",
"^^^^^^^^^^^^^^^^^^^^^^^^^^^^^^^^^^^^^^^^^^^^^^^^^^^^^^^^^^^^^^^^^^^^^^^^^^^^^^^^",
"^^^^^^^^^^^^^^^^^^^^^^^^^^^^^^^^^^^^^^^^^^^^^^^^^^^^^^^^^^^^^^^^^^^^^^^^^^^^^^^^",
"^^^^^^^^^^^^^^^^^^^^^^^^^^^^^^^^^^^^^^^^^^^^^^^^^^^^^^^^^^^^^^^^^^^^^^^^^^^^^^^^",
"^^^^^^^^^^^^^^^^^^^^^^^^^^^^^^^^^^^^^^^^^^^^^^^^^^^^^^^^^^^^^^^^^^^^^^^^^^^^^^^^",
"^^^^^^^^^^^^^^^^^^^^^^^^^^^^^^^^^^^^^^^^^^^^^^^^^^^^^^^^^^^^^^^^^^^^^^^^^^^^^^^^",
"^^^^^^^^^^^^^^^^^^^^^^^^^^^^^^^^^^^^^^^^^^^RGMmvADAAVY^^^^^^^^^^^^^^^^^^^^^^^^^^",
"^^^^^^^^^^^^^^^^^^^^^^^^^^^^^^^^^^^^^^^HDnjynFR^^^^^EMzF^^^^^^^^^^^^^^^^^^^^^^^^",
"^^^^^^^^^^^^^^^^^^^^^^^^^^^^^^^^^^^UMggAYJURKP^^^^^^^WPJcK^^^^^^^^^^^^^^^^^^^^^^",
"^^^^^^^^^^^^^^^^^^^^^^^^^^^^^^^^^KmVIFPIR^^^^^^^^^^^^^EDECMW^^^^^^^^^^^^^^^^^^^^",
"^^^^^^^^^^^^^^^^^^^^^^^^^^^^^^^^JePJWISJR^^^^^^W^^^^^^^IREPeF^^^^^^^^^^^^^^^^^^^",
"^^^^^^^^^^^^^^^^^^^^^^^^^^^^^^^E7fgJIRRIUWY^^^SE^^^^^^RDHF^UmgW^^^^^^^^^^^^^^^^^",
"^^^^^^^^^^^^^^^^^^^^^^^^^^^^^^^n8ganDRR^EER^RPI^^^^^^^^^EIUWFJrD^^^^^^^^^^^^^^^^",
"^^^^^^^^^^^^^^^^^^^^^^^^^^^^^^^nHianJAFEEYWEEE^^^^^^^^RIE^^^IJJsMW^^^^^^^^^^^^^^",
"^^^^^^^^^^^^^^^^^^^^^^^^AgfnhsbUMDyevvc^^^^^^RY^^^^^R^^PUCHRUCCCcyK^^^^^^^^^^^^^",
"^^^^^^^^^^^^^^^^^^^^^PfqcCH^EJFjfeNSArjDIRWEWK^W^^^^IU^^HRIJWRJYMz8C^^^^^^^^^^^^",
"^^^^^^^^^^^^^^^^^^^IrnADK^^^^^^WUCe0nFSrcvFAPYPIY^^^^RA^^P^E^IIJSvmiD^^^^^^^^^^^",
"^^^^^^^^^^^^^^^^^^MvPI^^^^^^^^^^WJFfsCcSFzmnqnR^DRK^I^IJDKF^SDCMciare^^^^^^^^^^^",
"^^^^^^^^^^^^^^^^WgP^W^^^^^^^^^^^^^HHFgIDnmYnyemmeAKmnJDavVcMnMmyaiq9,!^^^^^^^^^^",
"^^^^^^^^^^^^^^^^aP^^^^^^^^^^^^^^^^WEYDjU^RVcVJDFjnfi8sVavMzgjgaqia6a>~^^^^^^^^^^",
"^^^^^^^^^^^^^^^cmE^^^^^^^^^^^^^^^^^^FJKsW^^Ez#eavERWYUJmAPJJF^ERIABnc^^^^^^^^^^^",
"^^^^^^^^^^^^^^SCJ^^^^^^RYWWRJCDJKK^^^DmNv^^^H,4g1494=6mIDmASNnzmNHSW^^^^^^^^^^^^",
"^^^^^^^^^^^^^WiY^^^^^^MefagfjmgiNgF^^RPMaW^^MMRKfj89-6^^^^^^^^^^^^^^^^^^^^^^^^^^",
"^^^^^^^^^^^^^zDE^^^^^UgevyjVNngzjfMSW^^ADc^^fgR^^^ve7<^^^^^^^^^^^^^^^^^^^^^^^^^^",
"^^^^^^^^^^^^EeK^^^^^^BqMqj3g7q8yVcifFYEPAs^^g61mH^RSa@^^^^^^^^^^^^^^^^^^^^^^^^^^",
"^^^^^^^^^^^^vcF^^^^^^gy91aVSV-XsefffAR^KHrR^smW^yJgSj%J^^^^^^^^^^^^^^^^^^^^^^^^^",
"^^^^^^^^^^^^eCSU^^^^Wji1vnVMnc*:9zncfS^IMnv^iV^^I6s4$:R^^^^^^^^^^^^^^^^^^^^^^^^^",
"^^^^^^^^^^^FsNK^^^^^DdyjKYRWEJ-1pjaypv^KJMe^DV^^^EFM4s^^^^^^^^^^^^^^^^^^^^^^^^^^",
"^^^^^^^^^^^kzHY^^^^^ee2M^^^^WA6>pgeepy^WWKr^jV^^^^WF3H^^^^^^^^^^^^^^^^^^^^^^^^^^",
"^^^^^^^^^^^pSP^^^^^Y9j4p^^^^RFJ>8MNcnpP^^Sy^gK^^^^KDqP^^^^^^^^^^^^^^^^^^^^^^^^^^",
"^^^^^^^^^^^uKY^^^^^77w50^^^^^^^A$sZCjfS^^F9^jK^^^^KK<^^^^^^^^^^^^^^^^^^^^^^^^^^^",
"^^^^^^^^^^^lI^^^^^^4is63^^^^^^Fn3ewfytA^^Ky^zK^^^^^U6^^^^^^^^^^^^^^^^^^^^^^^^^^^",
"^^^^^^^^^^^uP^^^^^^r30e$^YaSPPWJ6,jHAzU^^Ka^VK^^^^^R3^^^^^^^^^^^^^^^^^^^^^^^^^^^",
"^^^^^^^^^^^zMUR^^^^ID9i*^AEVcgKN4;yvrK^^UMv^MK^^^^ID0^^^^^^^^^^^^^^^^^^^^^^^^^^^",
"^^^^^^^^^^^W8JP^^^^^Jir-gH^^^Wr1@ja9J^^KFeE^mI^^^^EV3^^^^^^^^^^^^^^^^^^^^^^^^^^^",
"^^^^^^^^^^^^DmDW^^^^Ieac=^^^^^vm9ffJ^PPSVD^^zE^^^^^H7^^^^^^^^^^^^^^^^^^^^^^^^^^^",
"^^^^^^^^^^^^^NHP^^^^We3a>E^^^ISV7S^^IYJzN^^^jK^^^^^Ke^^^^^^^^^^^^^^^^^^^^^^^^^^^",
"^^^^^^^^^^^^^^VD^^^^^JSDJM^^^WUSrPIRWDsD^^^^jK^^^^^Pi^^^^^^^^^^^^^^^^^^^^^^^^^^^",
"^^^^^^^^^^^^^^^MnE^^^^^^^M^^^F^PmNbgxNW^^^^^9K^^^^^Rf^^^^^^^^^^^^^^^^^^^^^^^^^^^",
"^^^^^^^^^^^^^^^^Nv^^^^^^^n^^^Y^^nqD^^^^^^^^R3K^^^^UK0I^^^^^^^^^^^^^^^^^^^^^^^^^^",
"^^^^^^^^^^^^^^^^^SjRW^^JHz^^^^^^Sz^^^^^^^W^K3K^^^^^K3c^W^^^^^^^^^^^^^^^^^^^^^^^^",
"^^^^^^^^^^^^^^^^^^WCyjjccg^^^^^YVr^^^^PJ^EFg9K^^^^Rm=jDR^^^^^^^^^^^^^^^^^^^^^^^^",
"^^^^^^^^^^^^^^^^^^^^^^^^Ev^^^^EJme^^^^WsiIjy4H^^^^Ua.MmU^^^^^^^^^^^^^^^^^^^^^^^^",
"^^^^^^^^^^^^^^^^^^U^^^P^zY^^^^IDN;cbVNMI09js,e^W^^N4 v0JFK^^^^^^^^^^^^^^^^^^^^^^",
"^^^^^^^^^^^^^^^^^^EAK^C^e^^^^RPV4J^^^^^Cc4iq,8Sm^Aj8&8cSsI^^^^^^^^^^^^^^^^^^^^^^",
"^^^^^^^^^^^^^^^^^^^SfEvnD^^^^YFyI^^^^^^^^n$4+viHVvee0<az<^^^^^^^^^^^^^^^^^^^^^^^",
"^^^^^^^^^^^^^^^^^^^RrMjf^^^^^^Uf^^^^^^^^^^S#@gaNAjy,iqgizFW^^^^^^^^^^^^^^^^^^^^^",
"^^^^^^^^^^^^^^^^^YYDf<9W^^^^IWHa^^^^^^^^^^IHO8NyNc8-afaqgvH^^^^^^^^^^^^^^^^^^^^^",
"^^^^^^^^^^^^^^^Y^^vVn-U^^^^^UPHq^^^^^^^^^^WEn9semq=,6czfVSn^^^^^^^^^^^^^^^^^^^^^",
"^^^^^^^^^^^^^^^ARWsiaC^^^^^^RFHyY^^^^^^^^^^YY19sjayfemaJ^UP^^^^^^^^^^^^^^^^^^^^^",
"^^^^^^^^^^^^^^^^zVN8c^^^^^^^^IVgFW^^^^^^^^^^V8enrmyyigcP^^^^^^^^^^^^^^^^^^^^^^^^",
"^^^^^^^^^^^^^^^KcAD9nJ^P^Y^YEFzec^^^^^^^^^^WAc1g7I9qaANv^^^^^^^^^^^^^^^^^^^^^^^^",
"^^^^^^^^^^^^^^UCHCF-vgIAUC^JIHzirqHSm^^^^WWJJarV-mg6DijP^^^^^^^^^^^^^^^^^^^^^^^^",
"^^^^^^^^^^^^^^IPHcg1fNyAP7EcAc9aeSNKVgCWJDPJAi4nenajYmF^^^^^^^^^^^^^^^^^^^^^^^^^",
"^^^^^^^^^^^^^WEVjnriaFgnFyWzsr<N;NmYHmRaFVDKjy0geDcY^R^^^^^^^^^^^^^^^^^^^^^^^^^^",
"^^^^^^^^^^^^^KFA8mDi9VzrvrA6son6%gfY^RFFeJna<zqfjDC4J^^^^^^^^^^^^^^^^^^^^^^^^^^^",
"^^^^^^^^^^^^^WUCDIYy;g9e9zfcg%n1ev;UVVvj8g14MMazvNezA^^^^^^^^^^^^^^^^^^^^^^^^^^^",
"^^^^^^^^^^^^^^^^^^^VzIz;yszae-JqmmrnMD7eO68MNjnmUK7A^^^^^^^^^^^^^^^^^^^^^^^^^^^^",
"^^^^^^^^^^^^^^^^^^^^^^ESIUNFrgYNgf4g0M=17NzjA8AJSYI^^^^^^^^^^^^^^^^^^^^^^^^^^^^^",
"^^^^^^^^^^^^^^^^^^^^^^^^^^^^AW^vECVmiA$ciqgKDr^RU^^^^^^^^^^^^^^^^^^^^^^^^^^^^^^^",
"^^^^^^^^^^^^^^^^^^^^^^^^^^^^^^^^^^^^HM0SMAW^^U^^^^^^^^^^^^^^^^^^^^^^^^^^^^^^^^^^",
"^^^^^^^^^^^^^^^^^^^^^^^^^^^^^^^^^^^^^QLQT^^^^^^^^^^^^^^^^^^^^^^^^^^^^^^^^^^^^^^^",
"^^^^^^^^^^^^^^^^^^^^^^^^^^^^^^^^^^^^^^^^^^^^^^^^^^^^^^^^^^^^^^^^^^^^^^^^^^^^^^^^",
"^^^^^^^^^^^^^^^^^^^^^^^^^^^^^^^^^^^^^^^^^^^^^^^^^^^^^^^^^^^^^^^^^^^^^^^^^^^^^^^^",
"^^^^^^^^^^^^^^^^^^^^^^^^^^^^^^^^^^^^^^^^^^^^^^^^^^^^^^^^^^^^^^^^^^^^^^^^^^^^^^^^",
"^^^^^^^^^^^^^^^^^^^^^^^^^^^^^^^^^^^^^^^^^^^^^^^^^^^^^^^^^^^^^^^^^^^^^^^^^^^^^^^^",
"^^^^^^^^^^^^^^^^^^^^^^^^^^^^^^^^^^^^^^^^^^^^^^^^^^^^^^^^^^^^^^^^^^^^^^^^^^^^^^^^",
"^^^^^^^^^^^^^^^^^^^^^^^^^^^^^^^^^^^^^^^^^^^^^^^^^^^^^^^^^^^^^^^^^^^^^^^^^^^^^^^^",
"^^^^^^^^^^^^^^^^^^^^^^^^^^^^^^^^^^^^^^^^^^^^^^^^^^^^^^^^^^^^^^^^^^^^^^^^^^^^^^^^",
"^^^^^^^^^^^^^^^^^^^^^^^^^^^^^^^^^^^^^^^^^^^^^^^^^^^^^^^^^^^^^^^^^^^^^^^^^^^^^^^^",
"^^^^^^^^^^^^^^^^^^^^^^^^^^^^^^^^^^^^^^^^^^^^^^^^^^^^^^^^^^^^^^^^^^^^^^^^^^^^^^^^",
"^^^^^^^^^^^^^^^^^^^^^^^^^^^^^^^^^^^^^^^^^^^^^^^^^^^^^^^^^^^^^^^^^^^^^^^^^^^^^^^^",
"^^^^^^^^^^^^^^^^^^^^^^^^^^^^^^^^^^^^^^^^^^^^^^^^^^^^^^^^^^^^^^^^^^^^^^^^^^^^^^^^",
"^^^^^^^^^^^^^^^^^^^^^^^^^^^^^^^^^^^^^^^^^^^^^^^^^^^^^^^^^^^^^^^^^^^^^^^^^^^^^^^^"
};
