/* XPM */
static char *result[] = {
/* columns rows colors chars-per-pixel */
"80 80 87 1 ",
"  c black",
". c gray1",
"X c #060606",
"o c #070707",
"O c gray4",
"+ c gray5",
"@ c #0E0E0E",
"# c #111111",
"$ c gray8",
"% c #151515",
"& c #181818",
"* c #1B1B1B",
"= c gray12",
"- c #222222",
"; c #232323",
": c gray15",
"> c gray16",
", c gray17",
"< c #2C2C2C",
"1 c #2D2D2D",
"2 c gray19",
"3 c #343434",
"4 c #373737",
"5 c gray22",
"6 c #3A3A3A",
"7 c gray23",
"8 c #3E3E3E",
"9 c #414141",
"0 c gray26",
"q c gray27",
"w c #484848",
"e c #494949",
"r c #4C4C4C",
"t c gray31",
"y c #505050",
"u c #535353",
"i c gray33",
"p c #555555",
"a c #565656",
"s c gray34",
"d c #5A5A5A",
"f c gray37",
"g c #646464",
"h c #686868",
"j c #6A6A6A",
"k c #6C6C6C",
"l c #6F6F6F",
"z c #727272",
"x c #767676",
"c c #797979",
"v c gray48",
"b c gray49",
"n c #808080",
"m c #848484",
"M c gray53",
"N c #888888",
"B c #8B8B8B",
"V c #8E8E8E",
"C c #929292",
"Z c #959595",
"A c gray60",
"S c #9A9A9A",
"D c gray61",
"F c #9D9D9D",
"G c #A0A0A0",
"H c gray64",
"J c #A7A7A7",
"K c #AAAAAA",
"L c gray67",
"P c #AEAEAE",
"I c #B1B1B1",
"U c #B2B2B2",
"Y c gray71",
"T c gray73",
"R c #BCBCBC",
"E c gray74",
"W c gray75",
"Q c #C3C3C3",
"! c #C6C6C6",
"~ c #CACACA",
"^ c #CDCDCD",
"/ c gray82",
"( c gray83",
") c #D8D8D8",
"_ c gray86",
"` c #DDDDDD",
"' c #DFDFDF",
/* pixels */
"''''''''''''''''''''''''''''''''''''''''''''''''''''''''''''''''''''''''''''''''",
"''''''''''''''''''''''''''''''''''''''''''''''''''''''''''''''''''''''''''''''''",
"''''''''''''''''''''''''''''''''''''''''''''''''''''''''''''''''''''''''''''''''",
"''''''''''''''''''''''''''''''''''''''''''''''''''''''''''''''''''''''''''''''''",
"''''''''''''''''''''''''''''''''''''''''''''''''''''''''''''''''''''''''''''''''",
"''''''''''''''''''''''''''''''''''''''''''''''''''''''''''''''''''''''''''''''''",
"''''''''''''''''''''''''''''''''''''''''''''''''''''''''''''''''''''''''''''''''",
"''''''''''''''''''''''''''''''''''''''''''''''''''''''''''''''''''''''''''''''''",
"''''''''''''''''''''''''''''''''''''''''''''''''''''''''''''''''''''''''''''''''",
"''''''''''''''''''''''''''''''''''''''''''''''''''''''''''''''''''''''''''''''''",
"''''''''''''''''''''''''''''''''''''''''''''''''''''''''''''''''''''''''''''''''",
"''''''''''''''''''''''''''''''''''''''''''''''''''''''''''''''''''''''''''''''''",
"''''''''''''''''''''''''''''''''''''(E''''''''''''''''''''''''''''''''''''''''''",
"'''''''''''''''''''''''''''''''''Qn'UbJNQYp,7vF^''''''''''''''''''''''''''''''''",
"'''''''''''''''''''''''''''''''('2==o  .o      3mb_'''''''''''''''''''''''''''''",
"''''''''''''''''''''''''''')As;7Gq                2~''''''''''''''''''''''''''''",
"'''''''''''''''''''''''''Ir+ *x                   -yW'I'''''''''''''''''''''''''",
"'''''''''''''''''''''''/r  GrQy                    OecY'''''''''''''''''''''''''",
"'''''''''''''''''''''''uwM4nk@                       ol_''''''''''''''''''''''''",
"''''''''''''''''''''''RVxn(3                           >Y'''''''''''''''''''''''",
"''''''''''''''''''''_xO Gd;                             OV''''''''''''''''''''''",
"'''''''''''''''''''~19  @                                 b'''''''''''''''''''''",
"''''''''''''''''''_w0@                                     b''''''''''''''''''''",
"''''''''''''''''''_4                                        B'''''''''''''''''''",
"''''''''''''''''''P*                                        oY''''''''''''''''''",
"'''''''''''''''''~:                                          %!'''''''''''''''''",
"''''''''''''''''(Co                                           h'''''''''''''''''",
"''''''''''''''''IM  X+                                        .R''''''''''''''''",
"''''''''''''''Q'Ql =go                                         u''''''''''''''''",
"''''''''''''''D'_06Ky                                          o~'''''''''''''''",
"'''''''''''''~V!43RP.                                           b'''''''''''''''",
"''''''''''''`h/z  W-                                            1'''''''''''''''",
"'''''''''''''()W  d                                              Y''''''''''''''",
"'''''''''''''''KX$.                                              w''''''''''''''",
"''''''''''''''Bv&A                                               8''''''''''''''",
"''''''''''''''us %                                               4''''''''''''''",
"''''''''''''''cJ&                                                -!'''''''''''''",
"''''''''''''''KgO                                                 A'''''''''''''",
"''''''''''''''(:                                                 Oc'''''''''''''",
"''''''''''''''R*                                                 OL'''''''''''''",
"''''''''''''''^                                                   P'''''''''''''",
"''''''''''''''7                                                   n'''''''''''''",
"''''''''''''''a                                                  +^'''''''''''''",
"''''''''''''''G                                                  <_'''''''''''''",
"''''''''''''''(.                                                 Y''''''''''''''",
"'''''''''''''''>                                                 A''''''''''''''",
"'''''''''''''''u                                                1G''''''''''''''",
"'''''''''''''''n#                                               BY''''''''''''''",
"'''''''''''''''/t                                              4(W''''''''''''''",
"''''''''''''''''H                                              J''''''''''''''''",
"''''''''''''''''W                                             qR''''''''''''''''",
"''''''''''''''''_-                                           +Cx''''''''''''''''",
"'''''''''''''''''P                                           C!'''''''''''''''''",
"'''''''''''''''''~.                                         dQa'''''''''''''''''",
"''''''''''''''''''GX                                       8_)9_''''''''''''''''",
"'''''''''''''''''''d                                      =^''^'''''''''''''''''",
"'''''''''''''''''''D                                     +TZQ^''''''''''''''''''",
"''''''''''''''''''''l                                    ZKacP''''''''''''''''''",
"'''''''''''''''''''''B                                  u'S!''''''''''''''''''''",
"''''''''''''''''''''''z                                =!(Q'''''''''''''''''''''",
"'''''''''''''''''''''''c.                             $f3R''''''''''''''''''''''",
"''''''''''''''''''''''''AO                              j'''''''''''''''''''''''",
"'''''''''''''''''''''''''R4                           +b''''''''''''''''''''''''",
"'''''''''''''''''''''''''''M$                      X=1~'''''''''''''''''''''''''",
"''''''''''''''''''''''''''''R1                 #*$ ='(''''''''''''''''''''''''''",
"''''''''''''''''''''''''''''''V=            &0gJxCVVg!''''''''''''''''''''''''''",
"'''''''''''''''''''''''''''''''_b= +<dii54uC/~G(((P')'''''''''''''''''''''''''''",
"''''''''''''''''''''''''''''''''''Pcm'WAzhG'''/'''''''''''''''''''''''''''''''''",
"''''''''''''''''''''''''''''''''''''''''''''''''''''''''''''''''''''''''''''''''",
"''''''''''''''''''''''''''''''''''''''''''''''''''''''''''''''''''''''''''''''''",
"''''''''''''''''''''''''''''''''''''''''''''''''''''''''''''''''''''''''''''''''",
"''''''''''''''''''''''''''''''''''''''''''''''''''''''''''''''''''''''''''''''''",
"''''''''''''''''''''''''''''''''''''''''''''''''''''''''''''''''''''''''''''''''",
"''''''''''''''''''''''''''''''''''''''''''''''''''''''''''''''''''''''''''''''''",
"''''''''''''''''''''''''''''''''''''''''''''''''''''''''''''''''''''''''''''''''",
"''''''''''''''''''''''''''''''''''''''''''''''''''''''''''''''''''''''''''''''''",
"''''''''''''''''''''''''''''''''''''''''''''''''''''''''''''''''''''''''''''''''",
"''''''''''''''''''''''''''''''''''''''''''''''''''''''''''''''''''''''''''''''''",
"''''''''''''''''''''''''''''''''''''''''''''''''''''''''''''''''''''''''''''''''",
"''''''''''''''''''''''''''''''''''''''''''''''''''''''''''''''''''''''''''''''''"
};
